<svg id="Project" xmlns="http://www.w3.org/2000/svg" viewBox="0 0 1920 1080"><title>Larakey</title><path d="M570.29,637.85v18.73a4,4,0,0,1-4,4H495.91a4,4,0,0,1,0-7.95h66.43V641.82H495.91a4,4,0,0,1-4-4V522.78a4,4,0,0,1,4-4h19.87a4,4,0,0,1,4,4v96.33a4,4,0,0,1-7.95,0V526.75H499.89V633.87h66.43A4,4,0,0,1,570.29,637.85Z" style="fill:#ff2d20"/><path d="M662.83,522.68,711.38,656.2a3.24,3.24,0,0,1-3,4.36H688.1a6,6,0,0,1-5.58-3.88l-11.36-31.42H603.31l-9.93,27.35h12l5.11-14a4,4,0,0,1,7.48,2.75l-5.58,15.33a6,6,0,0,1-5.59,3.88H586.66a3.24,3.24,0,0,1-3-4.36l12.68-35a5.84,5.84,0,0,1,5.58-3.88h70.69a5.83,5.83,0,0,1,5.58,3.88l11.36,31.42h12.11l-45.8-125.86H639.18l-26.12,71.83h48.45l-14-38.52-9.17,25.08a4,4,0,1,1-7.48-2.65l13.91-38.14a2.8,2.8,0,0,1,2.74-1.89,2.92,2.92,0,0,1,2.75,1.89l21,57.82a3.24,3.24,0,0,1-3,4.35H606.34a3.24,3.24,0,0,1-3-4.35l28.86-79.49a5.85,5.85,0,0,1,5.59-3.88h19.49A5.83,5.83,0,0,1,662.83,522.68Z" style="fill:#ff2d20"/><path d="M836.47,563.75c0,15.62-6.24,28.67-17.41,36.53a4.4,4.4,0,0,1-2.36.76,4,4,0,0,1-4-4.07,3.93,3.93,0,0,1,1.8-3.22c9.37-6.62,14-17.6,14-30,0-22.8-16.93-37-42.86-37h-41V652.61h11.93V587.69a3.93,3.93,0,0,1,4-4h.85a6.55,6.55,0,0,1,5.49,2.74l48.54,66.15h14l-47.41-64a2.91,2.91,0,0,1-.66-1.89,3.07,3.07,0,0,1,3.12-3h1.61c17.41,0,22.52-9.37,22.52-20,0-11.92-8.42-18.26-21.57-18.26H764.55V569a4,4,0,1,1-7.94,0V541.51a3.93,3.93,0,0,1,4-4h26.5c18,0,29.52,10.31,29.52,26.21,0,15-8.42,25.17-22.9,27.26l47.88,64.63a2.77,2.77,0,0,1,.66,1.79,3.15,3.15,0,0,1-3.12,3.13H814.8a6.62,6.62,0,0,1-5.39-2.75l-44.86-61.13v59.9a4,4,0,0,1-4,4H740.71a4,4,0,0,1-4-4V522.78a4,4,0,0,1,4-4h44.95C818.3,518.8,836.47,538.58,836.47,563.75Z" style="fill:#ff2d20"/><path d="M936.11,522.68,984.66,656.2a3.25,3.25,0,0,1-3,4.36H961.38a6,6,0,0,1-5.58-3.88l-11.36-31.42H876.59l-9.94,27.35h12l5.11-14a4,4,0,0,1,7.48,2.75l-5.58,15.33a6,6,0,0,1-5.59,3.88H859.94a3.24,3.24,0,0,1-3-4.36l12.68-35a5.84,5.84,0,0,1,5.58-3.88h70.69a5.84,5.84,0,0,1,5.58,3.88l11.36,31.42h12.11l-45.8-125.86H912.46l-26.12,71.83h48.45l-14-38.52-9.18,25.08a3.94,3.94,0,0,1-3.69,2.65,4,4,0,0,1-3.78-5.3L918,544.35a2.8,2.8,0,0,1,2.74-1.89,2.93,2.93,0,0,1,2.75,1.89l21,57.82a3.23,3.23,0,0,1-3,4.35H879.62a3.24,3.24,0,0,1-3-4.35l28.86-79.49A5.84,5.84,0,0,1,911,518.8h19.49A5.84,5.84,0,0,1,936.11,522.68Z" style="fill:#ff2d20"/><path d="M1120.35,657.72a2.85,2.85,0,0,1-2.84,2.84h-26.12a8.51,8.51,0,0,1-6.24-2.94l-34.45-40.21a4.59,4.59,0,0,1-.94-2.65,4,4,0,0,1,7-2.56l34.54,40.41h15.14l-54.32-63.12a4.14,4.14,0,0,1,0-5.49l49.3-57.25h-14.76l-48.83,57v72.86a4,4,0,0,1-4,4H1014a4,4,0,0,1-4-4V522.78a4,4,0,0,1,4-4h19.87a4,4,0,0,1,4,4v30.37a4,4,0,1,1-7.95,0v-26.4H1018V652.61h11.92V583.72a7.85,7.85,0,0,1,2-5.21l48.64-56.77a8,8,0,0,1,6.25-2.94h25.74a2.89,2.89,0,0,1,2.17,4.73l-54.41,63.22,59.43,69.08A2.89,2.89,0,0,1,1120.35,657.72Z" style="fill:#ff2d20"/><path d="M1231,633.87a3.94,3.94,0,0,1,4,4v18.73a3.94,3.94,0,0,1-4,4h-79.78a4,4,0,0,1-4-4V522.78a4,4,0,0,1,4-4h78.45a4,4,0,0,1,4,4v18.73a4,4,0,0,1-4,4H1175v12.58a3.94,3.94,0,0,1-4,4,4,4,0,0,1-4-4V541.51a4,4,0,0,1,4-4h54.6V526.75h-70.5V652.61H1227V641.82h-55.92a4,4,0,0,1-4-4v-61a4,4,0,0,1,4-4h56.39a3.93,3.93,0,0,1,4,4v18.74a3.94,3.94,0,0,1-4,4h-36.52a4,4,0,1,1,0-7.95h32.55V580.79H1175v53.08Z" style="fill:#ff2d20"/><path d="M1340.07,522.11a6.45,6.45,0,0,1,5.58-3.31h22.52a3,3,0,0,1,2.65,4.45l-43.34,79.3v54a4,4,0,0,1-4,4h-19.87a4,4,0,0,1-4-4V618.64a4,4,0,1,1,7.95,0v34h11.92v-50a8.66,8.66,0,0,1,1-4.06l39.27-71.83H1346.6l-41.26,75.52a3.44,3.44,0,0,1-2.84,1.6,3.32,3.32,0,0,1-2.84-1.6l-43.34-79a3,3,0,0,1,2.65-4.45h22.52a6.47,6.47,0,0,1,5.59,3.31L1306,556.65a4,4,0,0,1-3.59,5.87,3.89,3.89,0,0,1-3.41-2.08l-18.45-33.69H1267.3l35.2,64.07Z" style="fill:#ff2d20"/><path d="M962.07,401.58h0l-9.68,4.15L944,402.1c-35.67-15.45-66.21-29.59-58.77-88.92s29.53-52,0-36.15-15.6,8.47-15.6,8.47v48.28a97.15,97.15,0,0,0,58.77,88.93l8.41,3.63,9.68-4.14h0A98,98,0,0,0,994,380.07,98.67,98.67,0,0,1,962.07,401.58Z" style="fill:#f9a2a0"/><path d="M955.06,403.37h0l-9.68,4.15-8.41-3.64c-35.66-15.45-66.2-29.59-58.77-88.92s29.53-52,0-36.15-15.59,8.47-15.59,8.47v48.28a97.14,97.14,0,0,0,58.77,88.93l8.41,3.63,9.68-4.14h0A97.94,97.94,0,0,0,987,381.86,98.52,98.52,0,0,1,955.06,403.37Z" style="fill:#f9a2a0"/><path d="M922.32,356.41a2.82,2.82,0,0,1-2.15-1l-15-17.52a2.83,2.83,0,1,1,4.3-3.68l13.17,15.41,32.7-26.6a2.83,2.83,0,0,1,3.57,4.39l-34.84,28.35A2.8,2.8,0,0,1,922.32,356.41Z" style="fill:#ff2d20"/><path d="M919.27,430.39l9.65,4.2a3.53,3.53,0,0,0,2.83,0l10.88-4.7a102.85,102.85,0,0,0,63-94.82V286.29a3.56,3.56,0,0,0-1.88-3.15L932.26,245a3.53,3.53,0,0,0-3.38,0l-69.54,38.1a3.57,3.57,0,0,0-1.84,3.13v49.77A103.06,103.06,0,0,0,919.27,430.39Zm-54.65-142,66-36.17,67.93,36.19v46.66a95.74,95.74,0,0,1-58.7,88.27h0l-9.47,4.09-8.23-3.59a95.91,95.91,0,0,1-57.5-87.8Z" style="fill:#ff2d20"/><path d="M923.6,398.61l6.25,2.73a2.27,2.27,0,0,0,1.84,0l7-3a66.7,66.7,0,0,0,40.88-61.5V305.17a2.31,2.31,0,0,0-1.22-2L932,278.42a2.27,2.27,0,0,0-2.19,0l-45.1,24.71a2.31,2.31,0,0,0-1.19,2v32.27A66.81,66.81,0,0,0,923.6,398.61Zm-35.45-92.08L931,283.08l44,23.47V336.8a62.1,62.1,0,0,1-38.06,57.25h0l-6.14,2.65-5.34-2.33a62.22,62.22,0,0,1-37.29-56.94Z" style="fill:#ff2d20;stroke:#ff2d20;stroke-miterlimit:10;stroke-width:3.052472862457217px"/><path d="M303,782.27v30.44h-4.85v-67.3H315.3q11.65,0,17.41,4.49t5.75,13.2a18,18,0,0,1-1.33,7,16.41,16.41,0,0,1-3.83,5.59,20.35,20.35,0,0,1-6,3.95,26.8,26.8,0,0,1-7.94,2,7.79,7.79,0,0,1,2.05,1.9l23.16,29.11h-4.23a2.79,2.79,0,0,1-1.31-.28,3.47,3.47,0,0,1-1.07-1l-21.55-27.3a4.75,4.75,0,0,0-1.73-1.47,7.18,7.18,0,0,0-2.88-.43Zm0-3.62h11.7a27.44,27.44,0,0,0,8-1.07,17.24,17.24,0,0,0,6-3.06,13.3,13.3,0,0,0,3.73-4.81,15,15,0,0,0,1.29-6.32q0-7.18-4.71-10.66t-13.7-3.47H303Z" style="fill:#ff2d20"/><path d="M372.47,764.62a22.74,22.74,0,0,1,9.11,1.74,18.65,18.65,0,0,1,6.78,4.92,21.94,21.94,0,0,1,4.21,7.68,35.55,35.55,0,0,1,0,20.1,21.94,21.94,0,0,1-4.21,7.66,18.49,18.49,0,0,1-6.78,4.9,25.12,25.12,0,0,1-18.22,0,18.64,18.64,0,0,1-6.8-4.9,21.5,21.5,0,0,1-4.23-7.66,35.55,35.55,0,0,1,0-20.1,21.51,21.51,0,0,1,4.23-7.68,18.81,18.81,0,0,1,6.8-4.92A22.74,22.74,0,0,1,372.47,764.62Zm0,45.14a17.57,17.57,0,0,0,7.4-1.45,14.06,14.06,0,0,0,5.28-4.16,18.45,18.45,0,0,0,3.16-6.54,35.54,35.54,0,0,0,0-17.15,18.7,18.7,0,0,0-3.16-6.59,14.29,14.29,0,0,0-5.28-4.21,19.36,19.36,0,0,0-14.8,0,14.21,14.21,0,0,0-5.28,4.21,18.9,18.9,0,0,0-3.18,6.59,34.9,34.9,0,0,0,0,17.15,18.65,18.65,0,0,0,3.18,6.54,14,14,0,0,0,5.28,4.16A17.57,17.57,0,0,0,372.47,809.76Z" style="fill:#ff2d20"/><path d="M411.76,743.5v69.21h-4.52V743.5Z" style="fill:#ff2d20"/><path d="M446.34,764.62a19.48,19.48,0,0,1,7.39,1.38,16.57,16.57,0,0,1,5.9,4,18.5,18.5,0,0,1,3.9,6.49,25.69,25.69,0,0,1,1.4,8.85,2.36,2.36,0,0,1-.31,1.43,1.18,1.18,0,0,1-1,.38H429.5v.9a32.25,32.25,0,0,0,1.23,9.37,19.26,19.26,0,0,0,3.52,6.78,14.48,14.48,0,0,0,5.52,4.11,18.27,18.27,0,0,0,7.23,1.38,21.83,21.83,0,0,0,6.19-.78,22.6,22.6,0,0,0,4.39-1.76,23.83,23.83,0,0,0,2.83-1.76,3.28,3.28,0,0,1,1.53-.79,1.09,1.09,0,0,1,.95.48l1.23,1.52a13,13,0,0,1-3,2.67,21.61,21.61,0,0,1-4.19,2.11,30.38,30.38,0,0,1-4.95,1.41,27.92,27.92,0,0,1-5.3.52,22.41,22.41,0,0,1-8.85-1.69,18.76,18.76,0,0,1-6.85-4.92,22.56,22.56,0,0,1-4.43-7.92A33.91,33.91,0,0,1,425,788.07a29.16,29.16,0,0,1,1.45-9.39,21.48,21.48,0,0,1,4.19-7.42,19.06,19.06,0,0,1,6.7-4.88A22.1,22.1,0,0,1,446.34,764.62Zm.07,3.38a17.8,17.8,0,0,0-6.56,1.14,14.44,14.44,0,0,0-5,3.28,16.74,16.74,0,0,0-3.42,5.14,23.26,23.26,0,0,0-1.73,6.71h31.15a21,21,0,0,0-1-6.83,14.58,14.58,0,0,0-2.95-5.11,12.51,12.51,0,0,0-4.56-3.21A14.92,14.92,0,0,0,446.41,768Z" style="fill:#ff2d20"/><path d="M503.18,771.28a1.11,1.11,0,0,1-1.05.67,2.59,2.59,0,0,1-1.36-.6,21.36,21.36,0,0,0-2.19-1.33,18,18,0,0,0-3.32-1.33,16.83,16.83,0,0,0-4.83-.6,14.24,14.24,0,0,0-4.69.74,11.67,11.67,0,0,0-3.61,2,8.86,8.86,0,0,0-2.33,2.87,7.44,7.44,0,0,0-.84,3.44,5.88,5.88,0,0,0,1.15,3.7,9.78,9.78,0,0,0,3,2.51,23,23,0,0,0,4.21,1.81c1.57.5,3.18,1,4.83,1.51s3.26,1.08,4.83,1.69a18.3,18.3,0,0,1,4.21,2.31,11,11,0,0,1,3,3.38,9.54,9.54,0,0,1,1.15,4.85,14.77,14.77,0,0,1-1.12,5.75,13.16,13.16,0,0,1-3.24,4.62,15.4,15.4,0,0,1-5.21,3.09,20.21,20.21,0,0,1-7,1.14,21.28,21.28,0,0,1-8.61-1.59,24.13,24.13,0,0,1-6.47-4.16l1.09-1.62a1.82,1.82,0,0,1,.52-.57,1.43,1.43,0,0,1,.81-.19,2.56,2.56,0,0,1,1.52.76,18.93,18.93,0,0,0,6,3.28,16.27,16.27,0,0,0,5.36.76,15.56,15.56,0,0,0,5.28-.83,10.88,10.88,0,0,0,3.8-2.26,9.58,9.58,0,0,0,2.31-3.35,10.76,10.76,0,0,0,.78-4.07,6.55,6.55,0,0,0-1.14-4,9.83,9.83,0,0,0-3-2.66,20.89,20.89,0,0,0-4.21-1.86c-1.57-.5-3.18-1-4.85-1.52S484.6,788.58,483,788a17.88,17.88,0,0,1-4.21-2.29,11,11,0,0,1-3-3.35,9.73,9.73,0,0,1-1.14-4.92,11.27,11.27,0,0,1,1.1-4.85,12.33,12.33,0,0,1,3.11-4.1,15.42,15.42,0,0,1,4.93-2.8,19,19,0,0,1,6.51-1,21.7,21.7,0,0,1,7.68,1.26,18.61,18.61,0,0,1,6.16,3.83Z" style="fill:#ff2d20"/><path d="M566.58,812.71a1.63,1.63,0,0,1-1.76-1.33l-.67-6a47.32,47.32,0,0,1-3.88,3.42,23.06,23.06,0,0,1-4,2.57,19.51,19.51,0,0,1-4.52,1.59,24,24,0,0,1-5.33.55,15.86,15.86,0,0,1-4.71-.71,11.72,11.72,0,0,1-4-2.19,10.57,10.57,0,0,1-2.83-3.78,13,13,0,0,1-1.07-5.54,9.85,9.85,0,0,1,1.71-5.57,14.13,14.13,0,0,1,5.35-4.47,35.28,35.28,0,0,1,9.37-3A80.89,80.89,0,0,1,564,786.84v-5q0-6.57-2.83-10.11c-1.89-2.36-4.68-3.54-8.39-3.54a15.92,15.92,0,0,0-5.83,1,20.54,20.54,0,0,0-4.07,2.09,26.3,26.3,0,0,0-2.71,2.09,2.92,2.92,0,0,1-1.76,1,1.55,1.55,0,0,1-1.43-.86l-.8-1.38a27.5,27.5,0,0,1,7.8-5.61,21.7,21.7,0,0,1,9.27-1.91,16.88,16.88,0,0,1,6.66,1.22,12.26,12.26,0,0,1,4.73,3.47,15,15,0,0,1,2.83,5.47,25,25,0,0,1,1,7.16v30.82Zm-19-2.52a20.63,20.63,0,0,0,5.07-.59,19.33,19.33,0,0,0,4.28-1.67,21,21,0,0,0,3.68-2.54c1.15-1,2.27-2,3.38-3.19V789.88a85.69,85.69,0,0,0-11.63,1,33.85,33.85,0,0,0-8,2.26,11.82,11.82,0,0,0-4.66,3.4,7.26,7.26,0,0,0-1.5,4.5,10,10,0,0,0,.79,4.11,8,8,0,0,0,5.06,4.5A12.19,12.19,0,0,0,547.55,810.19Z" style="fill:#ff2d20"/><path d="M582.65,812.71V765.38h2.48a1.28,1.28,0,0,1,1.42,1.19l.43,7.14a26.49,26.49,0,0,1,7.54-6.59,18.72,18.72,0,0,1,9.59-2.5,17.66,17.66,0,0,1,6.87,1.24,12.52,12.52,0,0,1,4.92,3.57,15.64,15.64,0,0,1,3,5.61,25.33,25.33,0,0,1,1,7.42v30.25h-4.52V782.46q0-6.66-3-10.44T603,768.24a16.5,16.5,0,0,0-8.65,2.4,25.17,25.17,0,0,0-7.14,6.59v35.48Z" style="fill:#ff2d20"/><path d="M667.68,812.71a1.26,1.26,0,0,1-1.36-1.24l-.48-7.46a25.07,25.07,0,0,1-7.36,6.8,18.06,18.06,0,0,1-9.45,2.52q-8.71,0-13.6-6t-4.88-18.12a33.11,33.11,0,0,1,1.36-9.68,22.86,22.86,0,0,1,4-7.8,18.91,18.91,0,0,1,6.48-5.21,19.58,19.58,0,0,1,8.83-1.91,18.25,18.25,0,0,1,8.34,1.79,17.33,17.33,0,0,1,6.09,5.21V743.5h4.52v69.21Zm-17.37-3a15.52,15.52,0,0,0,8.53-2.43,24.24,24.24,0,0,0,6.81-6.75v-25a16.81,16.81,0,0,0-20.91-5.86,14.38,14.38,0,0,0-5.26,4.31,19.28,19.28,0,0,0-3.2,6.66,32.15,32.15,0,0,0-1.07,8.54q0,10.56,3.91,15.53T650.31,809.67Z" style="fill:#ff2d20"/><path d="M713,785.6v27.11h-4.85v-67.3h17.36q11.84,0,17.86,5.18t6,14.79a20,20,0,0,1-1.64,8.14,18.16,18.16,0,0,1-4.74,6.39,22,22,0,0,1-7.51,4.19,31,31,0,0,1-10,1.5Zm0-3.9h12.51a23.89,23.89,0,0,0,8-1.24,17.43,17.43,0,0,0,6-3.42,15.06,15.06,0,0,0,3.76-5.16,16,16,0,0,0,1.3-6.5q0-7.74-4.78-11.94t-14.24-4.18H713Z" style="fill:#ff2d20"/><path d="M777.29,764.62a19.48,19.48,0,0,1,7.39,1.38,16.57,16.57,0,0,1,5.9,4,18.5,18.5,0,0,1,3.9,6.49,25.69,25.69,0,0,1,1.4,8.85,2.36,2.36,0,0,1-.31,1.43,1.18,1.18,0,0,1-1,.38H760.45v.9a31.89,31.89,0,0,0,1.24,9.37,19.09,19.09,0,0,0,3.51,6.78,14.56,14.56,0,0,0,5.52,4.11,18.27,18.27,0,0,0,7.23,1.38,21.83,21.83,0,0,0,6.19-.78,22.6,22.6,0,0,0,4.39-1.76,23.83,23.83,0,0,0,2.83-1.76,3.28,3.28,0,0,1,1.53-.79,1.09,1.09,0,0,1,1,.48l1.23,1.52a13,13,0,0,1-3,2.67,21.61,21.61,0,0,1-4.19,2.11,30.38,30.38,0,0,1-5,1.41,27.92,27.92,0,0,1-5.3.52,22.45,22.45,0,0,1-8.85-1.69,18.76,18.76,0,0,1-6.85-4.92,22.56,22.56,0,0,1-4.43-7.92,33.91,33.91,0,0,1-1.56-10.73,29.16,29.16,0,0,1,1.45-9.39,21.48,21.48,0,0,1,4.19-7.42,19.06,19.06,0,0,1,6.7-4.88A22.1,22.1,0,0,1,777.29,764.62Zm.07,3.38a17.8,17.8,0,0,0-6.56,1.14,14.44,14.44,0,0,0-5,3.28,16.74,16.74,0,0,0-3.42,5.14,23.26,23.26,0,0,0-1.73,6.71h31.15a21,21,0,0,0-1-6.83,14.58,14.58,0,0,0-3-5.11,12.51,12.51,0,0,0-4.56-3.21A14.92,14.92,0,0,0,777.36,768Z" style="fill:#ff2d20"/><path d="M808.06,812.71V765.38h2.38a1.61,1.61,0,0,1,1.16.34,1.63,1.63,0,0,1,.41,1.14l.38,10a22.52,22.52,0,0,1,6.09-9,13.91,13.91,0,0,1,9.37-3.26,16.26,16.26,0,0,1,3.94.46,15.08,15.08,0,0,1,3.43,1.3l-.62,3.14a.85.85,0,0,1-1,.76,2.51,2.51,0,0,1-.81-.19l-1.31-.42A15.54,15.54,0,0,0,827,769a12.18,12.18,0,0,0-8.82,3.33,23.8,23.8,0,0,0-5.59,9.61v30.77Z" style="fill:#ff2d20"/><path d="M845.82,812.71V765.38h2.48a1.3,1.3,0,0,1,1.43,1.19l.42,6.85a30.77,30.77,0,0,1,3-3.57,20.33,20.33,0,0,1,3.36-2.78,15.79,15.79,0,0,1,3.8-1.81,14.26,14.26,0,0,1,4.26-.64,11.34,11.34,0,0,1,8.27,3A15.75,15.75,0,0,1,877,776a16.43,16.43,0,0,1,2.4-5.09,15.1,15.1,0,0,1,3.54-3.55,14.76,14.76,0,0,1,4.34-2.09,17.07,17.07,0,0,1,4.82-.69,16.29,16.29,0,0,1,6.32,1.17,12.41,12.41,0,0,1,4.77,3.45,15.71,15.71,0,0,1,3,5.61,25.6,25.6,0,0,1,1,7.61v30.25h-4.52V782.46q0-6.94-3-10.58t-8.57-3.64a12.71,12.71,0,0,0-4.73.9,11.4,11.4,0,0,0-4,2.69,12.83,12.83,0,0,0-2.76,4.45,17,17,0,0,0-1,6.18v30.25h-4.52V782.46q0-6.9-2.76-10.56t-8-3.66a12.22,12.22,0,0,0-7.14,2.3,22.23,22.23,0,0,0-5.85,6.4v35.77Z" style="fill:#ff2d20"/><path d="M929.35,749.07a3.57,3.57,0,0,1-.36,1.59,4.87,4.87,0,0,1-.93,1.31,4.22,4.22,0,0,1-1.33.9,3.86,3.86,0,0,1-1.62.34,3.81,3.81,0,0,1-1.61-.34,4.27,4.27,0,0,1-2.24-2.21,3.84,3.84,0,0,1-.33-1.59,4.31,4.31,0,0,1,1.23-3,4.39,4.39,0,0,1,1.34-.9,4,4,0,0,1,1.61-.33,4,4,0,0,1,1.62.33,4.22,4.22,0,0,1,1.33.9,4.55,4.55,0,0,1,.93,1.36A3.88,3.88,0,0,1,929.35,749.07Zm-2,16.31v47.33h-4.52V765.38Z" style="fill:#ff2d20"/><path d="M970.16,771.28a1.1,1.1,0,0,1-1,.67,2.59,2.59,0,0,1-1.36-.6,22.21,22.21,0,0,0-2.18-1.33,18.43,18.43,0,0,0-3.33-1.33,16.83,16.83,0,0,0-4.83-.6,14.24,14.24,0,0,0-4.69.74,11.67,11.67,0,0,0-3.61,2,8.86,8.86,0,0,0-2.33,2.87,7.43,7.43,0,0,0-.83,3.44,5.87,5.87,0,0,0,1.14,3.7,9.78,9.78,0,0,0,3,2.51,23,23,0,0,0,4.21,1.81c1.57.5,3.18,1,4.83,1.51s3.26,1.08,4.83,1.69a18.3,18.3,0,0,1,4.21,2.31,10.87,10.87,0,0,1,3,3.38,9.54,9.54,0,0,1,1.15,4.85,14.77,14.77,0,0,1-1.12,5.75,13,13,0,0,1-3.24,4.62,15.45,15.45,0,0,1-5.2,3.09,20.31,20.31,0,0,1-7,1.14,21.28,21.28,0,0,1-8.61-1.59,24.13,24.13,0,0,1-6.47-4.16l1.09-1.62a1.84,1.84,0,0,1,.53-.57,1.39,1.39,0,0,1,.8-.19,2.61,2.61,0,0,1,1.53.76,18.6,18.6,0,0,0,2.35,1.64,19.37,19.37,0,0,0,3.62,1.64,16.17,16.17,0,0,0,5.35.76,15.56,15.56,0,0,0,5.28-.83,10.88,10.88,0,0,0,3.8-2.26,9.33,9.33,0,0,0,2.31-3.35,10.76,10.76,0,0,0,.78-4.07,6.55,6.55,0,0,0-1.14-4,9.91,9.91,0,0,0-3-2.66,21.14,21.14,0,0,0-4.21-1.86q-2.36-.75-4.86-1.52T950,788a17.88,17.88,0,0,1-4.21-2.29,11,11,0,0,1-3-3.35,9.73,9.73,0,0,1-1.15-4.92,11.27,11.27,0,0,1,1.1-4.85,12.47,12.47,0,0,1,3.11-4.1,15.42,15.42,0,0,1,4.93-2.8,19,19,0,0,1,6.51-1,21.8,21.8,0,0,1,7.69,1.26,18.67,18.67,0,0,1,6.15,3.83Z" style="fill:#ff2d20"/><path d="M1011.06,771.28a1.09,1.09,0,0,1-1,.67,2.56,2.56,0,0,1-1.36-.6,22.52,22.52,0,0,0-2.19-1.33,17.85,17.85,0,0,0-3.33-1.33,16.74,16.74,0,0,0-4.83-.6,14.18,14.18,0,0,0-4.68.74,11.73,11.73,0,0,0-3.62,2,9.13,9.13,0,0,0-2.33,2.87,7.55,7.55,0,0,0-.83,3.44,5.87,5.87,0,0,0,1.14,3.7,9.7,9.7,0,0,0,3,2.51,23,23,0,0,0,4.21,1.81c1.57.5,3.18,1,4.83,1.51s3.25,1.08,4.82,1.69a18.09,18.09,0,0,1,4.21,2.31,10.91,10.91,0,0,1,3,3.38,9.64,9.64,0,0,1,1.14,4.85,14.59,14.59,0,0,1-1.12,5.75,13,13,0,0,1-3.23,4.62,15.5,15.5,0,0,1-5.21,3.09,20.27,20.27,0,0,1-7,1.14,21.28,21.28,0,0,1-8.61-1.59,24.29,24.29,0,0,1-6.47-4.16l1.1-1.62a1.82,1.82,0,0,1,.52-.57,1.43,1.43,0,0,1,.81-.19,2.59,2.59,0,0,1,1.52.76,18.8,18.8,0,0,0,2.36,1.64,19.25,19.25,0,0,0,3.61,1.64,16.21,16.21,0,0,0,5.35.76,15.48,15.48,0,0,0,5.28-.83,11,11,0,0,0,3.81-2.26,9.43,9.43,0,0,0,2.3-3.35,10.58,10.58,0,0,0,.79-4.07,6.55,6.55,0,0,0-1.14-4,9.83,9.83,0,0,0-3-2.66,21.14,21.14,0,0,0-4.21-1.86q-2.36-.75-4.85-1.52T990.92,788a17.68,17.68,0,0,1-4.21-2.29,10.91,10.91,0,0,1-3-3.35,9.73,9.73,0,0,1-1.14-4.92,11.26,11.26,0,0,1,1.09-4.85,12.36,12.36,0,0,1,3.12-4.1,15.47,15.47,0,0,1,4.92-2.8,19.1,19.1,0,0,1,6.52-1,21.74,21.74,0,0,1,7.68,1.26,18.61,18.61,0,0,1,6.16,3.83Z" style="fill:#ff2d20"/><path d="M1033.75,749.07a3.57,3.57,0,0,1-.36,1.59,4.84,4.84,0,0,1-.92,1.31,4.39,4.39,0,0,1-1.34.9,3.81,3.81,0,0,1-1.61.34,3.89,3.89,0,0,1-1.62-.34,4.22,4.22,0,0,1-1.33-.9,4.6,4.6,0,0,1-.91-1.31,3.84,3.84,0,0,1-.33-1.59,4.18,4.18,0,0,1,.33-1.64,4.33,4.33,0,0,1,.91-1.36,4.22,4.22,0,0,1,1.33-.9,4,4,0,0,1,1.62-.33,4,4,0,0,1,1.61.33,4.39,4.39,0,0,1,1.34.9,4.53,4.53,0,0,1,.92,1.36A3.88,3.88,0,0,1,1033.75,749.07Zm-2,16.31v47.33h-4.52V765.38Z" style="fill:#ff2d20"/><path d="M1066.52,764.62a22.74,22.74,0,0,1,9.11,1.74,18.65,18.65,0,0,1,6.78,4.92,21.94,21.94,0,0,1,4.21,7.68,35.55,35.55,0,0,1,0,20.1,21.94,21.94,0,0,1-4.21,7.66,18.49,18.49,0,0,1-6.78,4.9,25.12,25.12,0,0,1-18.22,0,18.64,18.64,0,0,1-6.8-4.9,21.5,21.5,0,0,1-4.23-7.66,35.55,35.55,0,0,1,0-20.1,21.51,21.51,0,0,1,4.23-7.68,18.81,18.81,0,0,1,6.8-4.92A22.74,22.74,0,0,1,1066.52,764.62Zm0,45.14a17.57,17.57,0,0,0,7.4-1.45,14.14,14.14,0,0,0,5.28-4.16,18.45,18.45,0,0,0,3.16-6.54,35.54,35.54,0,0,0,0-17.15,18.7,18.7,0,0,0-3.16-6.59,14.37,14.37,0,0,0-5.28-4.21,19.36,19.36,0,0,0-14.8,0,14.21,14.21,0,0,0-5.28,4.21,18.9,18.9,0,0,0-3.18,6.59,34.9,34.9,0,0,0,0,17.15,18.65,18.65,0,0,0,3.18,6.54,14,14,0,0,0,5.28,4.16A17.57,17.57,0,0,0,1066.52,809.76Z" style="fill:#ff2d20"/><path d="M1100,812.71V765.38h2.47a1.3,1.3,0,0,1,1.43,1.19l.43,7.14a26.32,26.32,0,0,1,7.53-6.59,18.72,18.72,0,0,1,9.59-2.5,17.66,17.66,0,0,1,6.87,1.24,12.52,12.52,0,0,1,4.92,3.57,15.64,15.64,0,0,1,3,5.61,25.33,25.33,0,0,1,1,7.42v30.25h-4.52V782.46q0-6.66-3-10.44t-9.32-3.78a16.51,16.51,0,0,0-8.66,2.4,25.14,25.14,0,0,0-7.13,6.59v35.48Z" style="fill:#ff2d20"/><path d="M1177.49,771.28a1.1,1.1,0,0,1-1,.67,2.59,2.59,0,0,1-1.36-.6,22.21,22.21,0,0,0-2.18-1.33,18.43,18.43,0,0,0-3.33-1.33,16.83,16.83,0,0,0-4.83-.6,14.24,14.24,0,0,0-4.69.74,11.67,11.67,0,0,0-3.61,2,8.86,8.86,0,0,0-2.33,2.87,7.43,7.43,0,0,0-.83,3.44,5.87,5.87,0,0,0,1.14,3.7,9.78,9.78,0,0,0,3,2.51,23,23,0,0,0,4.21,1.81c1.57.5,3.18,1,4.83,1.51s3.26,1.08,4.83,1.69a18.3,18.3,0,0,1,4.21,2.31,10.87,10.87,0,0,1,3,3.38,9.54,9.54,0,0,1,1.15,4.85,14.77,14.77,0,0,1-1.12,5.75,13,13,0,0,1-3.24,4.62,15.45,15.45,0,0,1-5.2,3.09,20.31,20.31,0,0,1-7,1.14,21.28,21.28,0,0,1-8.61-1.59,24.13,24.13,0,0,1-6.47-4.16l1.09-1.62a1.84,1.84,0,0,1,.53-.57,1.39,1.39,0,0,1,.8-.19,2.61,2.61,0,0,1,1.53.76,18.6,18.6,0,0,0,2.35,1.64,19.37,19.37,0,0,0,3.62,1.64,16.17,16.17,0,0,0,5.35.76,15.56,15.56,0,0,0,5.28-.83,10.88,10.88,0,0,0,3.8-2.26,9.33,9.33,0,0,0,2.31-3.35,10.76,10.76,0,0,0,.78-4.07,6.55,6.55,0,0,0-1.14-4,9.91,9.91,0,0,0-3-2.66,21.14,21.14,0,0,0-4.21-1.86q-2.35-.75-4.86-1.52t-4.85-1.66a17.88,17.88,0,0,1-4.21-2.29,11,11,0,0,1-3-3.35,9.73,9.73,0,0,1-1.15-4.92,11.27,11.27,0,0,1,1.1-4.85,12.47,12.47,0,0,1,3.11-4.1,15.42,15.42,0,0,1,4.93-2.8,19,19,0,0,1,6.51-1,21.8,21.8,0,0,1,7.69,1.26,18.67,18.67,0,0,1,6.15,3.83Z" style="fill:#ff2d20"/><path d="M1212.45,812.71V770.33l-6.66-.43c-.92-.06-1.38-.46-1.38-1.19v-1.85h8v-6a22,22,0,0,1,1-7.11,14.06,14.06,0,0,1,3-5.11,12.17,12.17,0,0,1,4.59-3.07,16.57,16.57,0,0,1,5.92-1,17.73,17.73,0,0,1,3,.26,12.91,12.91,0,0,1,2.64.74l-.15,2.19q0,.66-.9.66a12.15,12.15,0,0,1-1.55-.14,16.31,16.31,0,0,0-2.4-.14,12.93,12.93,0,0,0-4.3.69,8.29,8.29,0,0,0-3.4,2.21,10.27,10.27,0,0,0-2.22,4,20,20,0,0,0-.78,6v5.85h15.36v3.37H1217v42.48Z" style="fill:#ff2d20"/><path d="M1259.34,764.62a22.7,22.7,0,0,1,9.11,1.74,18.65,18.65,0,0,1,6.78,4.92,21.94,21.94,0,0,1,4.21,7.68,35.55,35.55,0,0,1,0,20.1,21.94,21.94,0,0,1-4.21,7.66,18.49,18.49,0,0,1-6.78,4.9,25.12,25.12,0,0,1-18.22,0,18.81,18.81,0,0,1-6.8-4.9,21.81,21.81,0,0,1-4.23-7.66,35.55,35.55,0,0,1,0-20.1,21.82,21.82,0,0,1,4.23-7.68,19,19,0,0,1,6.8-4.92A22.74,22.74,0,0,1,1259.34,764.62Zm0,45.14a17.54,17.54,0,0,0,7.4-1.45,14,14,0,0,0,5.28-4.16,18.45,18.45,0,0,0,3.16-6.54,35.54,35.54,0,0,0,0-17.15,18.7,18.7,0,0,0-3.16-6.59,14.21,14.21,0,0,0-5.28-4.21,19.34,19.34,0,0,0-14.79,0,14.21,14.21,0,0,0-5.28,4.21,18.91,18.91,0,0,0-3.19,6.59,34.9,34.9,0,0,0,0,17.15,18.66,18.66,0,0,0,3.19,6.54,14,14,0,0,0,5.28,4.16A17.53,17.53,0,0,0,1259.34,809.76Z" style="fill:#ff2d20"/><path d="M1292.78,812.71V765.38h2.38a1.61,1.61,0,0,1,1.16.34,1.63,1.63,0,0,1,.41,1.14l.38,10a22.52,22.52,0,0,1,6.09-9,13.91,13.91,0,0,1,9.37-3.26,16.4,16.4,0,0,1,4,.46,15.18,15.18,0,0,1,3.42,1.3l-.62,3.14a.85.85,0,0,1-1,.76,2.51,2.51,0,0,1-.81-.19l-1.31-.42a15.54,15.54,0,0,0-4.54-.62,12.18,12.18,0,0,0-8.82,3.33,23.8,23.8,0,0,0-5.59,9.61v30.77Z" style="fill:#ff2d20"/><path d="M1356,808.57H1388v4.14h-36.77v-67.3H1356Z" style="fill:#ff2d20"/><path d="M1427.77,812.71a1.63,1.63,0,0,1-1.76-1.33l-.67-6a47.32,47.32,0,0,1-3.88,3.42,23.06,23.06,0,0,1-4,2.57,19.67,19.67,0,0,1-4.52,1.59,24,24,0,0,1-5.33.55,15.86,15.86,0,0,1-4.71-.71,11.72,11.72,0,0,1-4-2.19,10.57,10.57,0,0,1-2.83-3.78,13,13,0,0,1-1.07-5.54,9.85,9.85,0,0,1,1.71-5.57,14,14,0,0,1,5.35-4.47,35.28,35.28,0,0,1,9.37-3,80.89,80.89,0,0,1,13.77-1.33v-5q0-6.57-2.83-10.11c-1.89-2.36-4.68-3.54-8.39-3.54a15.92,15.92,0,0,0-5.83,1,20.54,20.54,0,0,0-4.07,2.09,26.3,26.3,0,0,0-2.71,2.09,2.92,2.92,0,0,1-1.76,1,1.55,1.55,0,0,1-1.43-.86l-.8-1.38a27.5,27.5,0,0,1,7.8-5.61,21.67,21.67,0,0,1,9.27-1.91,16.88,16.88,0,0,1,6.66,1.22,12.26,12.26,0,0,1,4.73,3.47,15,15,0,0,1,2.83,5.47,25,25,0,0,1,1,7.16v30.82Zm-19-2.52a20.63,20.63,0,0,0,5.07-.59,19.33,19.33,0,0,0,4.28-1.67,21,21,0,0,0,3.68-2.54c1.15-1,2.27-2,3.38-3.19V789.88a85.69,85.69,0,0,0-11.63,1,33.85,33.85,0,0,0-8,2.26,11.82,11.82,0,0,0-4.66,3.4,7.26,7.26,0,0,0-1.5,4.5,9.82,9.82,0,0,0,.79,4.11,8,8,0,0,0,5.06,4.5A12.14,12.14,0,0,0,1408.74,810.19Z" style="fill:#ff2d20"/><path d="M1443.84,812.71V765.38h2.38a1.65,1.65,0,0,1,1.17.34,1.63,1.63,0,0,1,.4,1.14l.38,10a22.52,22.52,0,0,1,6.09-9,13.92,13.92,0,0,1,9.37-3.26,16.34,16.34,0,0,1,3.95.46,15.18,15.18,0,0,1,3.42,1.3l-.61,3.14a.87.87,0,0,1-1,.76,2.51,2.51,0,0,1-.81-.19c-.34-.12-.78-.26-1.3-.42a16.34,16.34,0,0,0-1.93-.43,15.69,15.69,0,0,0-2.62-.19,12.18,12.18,0,0,0-8.82,3.33,23.8,23.8,0,0,0-5.59,9.61v30.77Z" style="fill:#ff2d20"/><path d="M1509.44,812.71a1.62,1.62,0,0,1-1.76-1.33l-.67-6a47.32,47.32,0,0,1-3.88,3.42,22.76,22.76,0,0,1-4,2.57,19.43,19.43,0,0,1-4.51,1.59,24,24,0,0,1-5.33.55,15.86,15.86,0,0,1-4.71-.71,11.72,11.72,0,0,1-4-2.19,10.57,10.57,0,0,1-2.83-3.78,13,13,0,0,1-1.07-5.54,9.85,9.85,0,0,1,1.71-5.57,14,14,0,0,1,5.35-4.47,35.16,35.16,0,0,1,9.37-3,80.89,80.89,0,0,1,13.77-1.33v-5q0-6.57-2.83-10.11t-8.4-3.54a15.91,15.91,0,0,0-5.82,1,20.54,20.54,0,0,0-4.07,2.09,26.3,26.3,0,0,0-2.71,2.09,3,3,0,0,1-1.76,1,1.54,1.54,0,0,1-1.43-.86l-.81-1.38a27.78,27.78,0,0,1,7.8-5.61,21.74,21.74,0,0,1,9.28-1.91,16.88,16.88,0,0,1,6.66,1.22,12.26,12.26,0,0,1,4.73,3.47,15.19,15.19,0,0,1,2.83,5.47,25,25,0,0,1,1,7.16v30.82Zm-19-2.52a20.63,20.63,0,0,0,5.07-.59,19.33,19.33,0,0,0,4.28-1.67,21,21,0,0,0,3.68-2.54q1.71-1.49,3.38-3.19V789.88a85.69,85.69,0,0,0-11.63,1,33.85,33.85,0,0,0-8,2.26,11.82,11.82,0,0,0-4.66,3.4,7.26,7.26,0,0,0-1.5,4.5,9.82,9.82,0,0,0,.79,4.11,8,8,0,0,0,5.06,4.5A12.09,12.09,0,0,0,1490.41,810.19Z" style="fill:#ff2d20"/><path d="M1541.78,812.71h-4l-20-47.33h3.56a1.54,1.54,0,0,1,1.07.36,2.41,2.41,0,0,1,.6.78l15.6,37.34a12.38,12.38,0,0,1,.71,2.1l.48,2c.16-.66.32-1.34.5-2a14.77,14.77,0,0,1,.69-2.07l15.69-37.34a2.25,2.25,0,0,1,.65-.83,1.58,1.58,0,0,1,1-.31h3.43Z" style="fill:#ff2d20"/><path d="M1587.63,764.62A19.49,19.49,0,0,1,1595,766a16.66,16.66,0,0,1,5.9,4,18.65,18.65,0,0,1,3.9,6.49,25.93,25.93,0,0,1,1.4,8.85,2.36,2.36,0,0,1-.31,1.43,1.18,1.18,0,0,1-1,.38h-34.16v.9a32.23,32.23,0,0,0,1.24,9.37,19.26,19.26,0,0,0,3.52,6.78,14.4,14.4,0,0,0,5.52,4.11,18.27,18.27,0,0,0,7.23,1.38,21.71,21.71,0,0,0,6.18-.78,22.71,22.71,0,0,0,4.4-1.76,24.68,24.68,0,0,0,2.83-1.76,3.31,3.31,0,0,1,1.52-.79,1.1,1.1,0,0,1,1,.48l1.23,1.52a13.11,13.11,0,0,1-3,2.67,21.52,21.52,0,0,1-4.18,2.11,30.38,30.38,0,0,1-5,1.41,27.92,27.92,0,0,1-5.3.52,22.41,22.41,0,0,1-8.85-1.69,18.8,18.8,0,0,1-6.86-4.92,22.54,22.54,0,0,1-4.42-7.92,33.91,33.91,0,0,1-1.56-10.73,29.16,29.16,0,0,1,1.45-9.39,21.46,21.46,0,0,1,4.18-7.42,19.19,19.19,0,0,1,6.71-4.88A22.08,22.08,0,0,1,1587.63,764.62Zm.07,3.38a17.75,17.75,0,0,0-6.55,1.14,14.44,14.44,0,0,0-5,3.28,16.74,16.74,0,0,0-3.42,5.14,23.59,23.59,0,0,0-1.74,6.71h31.16a21,21,0,0,0-1-6.83,14.58,14.58,0,0,0-2.95-5.11,12.68,12.68,0,0,0-4.56-3.21A14.94,14.94,0,0,0,1587.7,768Z" style="fill:#ff2d20"/><path d="M1624.26,743.5v69.21h-4.52V743.5Z" style="fill:#ff2d20"/><line x1="218.52" y1="729.24" x2="1704.65" y2="729.24" style="fill:none;stroke:#ff2d20;stroke-miterlimit:10;stroke-width:6.328467804964346px"/><line x1="218.52" y1="835.27" x2="1704.65" y2="835.27" style="fill:none;stroke:#ff2d20;stroke-miterlimit:10;stroke-width:6.328467804964346px"/><line x1="221.69" y1="729.13" x2="221.69" y2="811.93" style="fill:none;stroke:#ff2d20;stroke-miterlimit:10;stroke-width:6.3419711115945026px"/><line x1="1701.49" y1="751.39" x2="1701.49" y2="835.27" style="fill:none;stroke:#ff2d20;stroke-miterlimit:10;stroke-width:6.328467804964346px"/></svg>