<svg id="Project" xmlns="http://www.w3.org/2000/svg" viewBox="0 0 200 100"><title>Larakey lOGO</title><path d="M51.81,75.35v2.56a.55.55,0,0,1-.55.55H41.63a.55.55,0,1,1,0-1.09h9.09V75.89H41.63a.55.55,0,0,1-.55-.54V59.6a.55.55,0,0,1,.55-.54h2.72a.54.54,0,0,1,.54.54V72.79a.54.54,0,0,1-.54.54.55.55,0,0,1-.55-.54V60.15H42.17V74.81h9.09A.55.55,0,0,1,51.81,75.35Z" style="fill:#ff2d20"/><path d="M64.47,59.59l6.64,18.27a.44.44,0,0,1-.41.6H67.93a.83.83,0,0,1-.77-.53l-1.55-4.3H56.32L55,77.37h1.64l.7-1.92a.54.54,0,0,1,1,.38l-.76,2.1a.83.83,0,0,1-.77.53H54.05a.45.45,0,0,1-.42-.6l1.74-4.79a.79.79,0,0,1,.76-.53H65.8a.81.81,0,0,1,.77.53l1.55,4.3h1.66L63.51,60.15H61.23L57.66,70h6.63l-1.92-5.27-1.25,3.43a.55.55,0,0,1-1-.36L62,62.56a.38.38,0,0,1,.37-.26.41.41,0,0,1,.38.26l2.87,7.91a.44.44,0,0,1-.41.59H56.74a.45.45,0,0,1-.42-.59l4-10.88a.81.81,0,0,1,.77-.53h2.67A.8.8,0,0,1,64.47,59.59Z" style="fill:#ff2d20"/><path d="M88.23,65.21a5.9,5.9,0,0,1-2.38,5,.67.67,0,0,1-.33.1.55.55,0,0,1-.54-.55.52.52,0,0,1,.25-.44,4.86,4.86,0,0,0,1.91-4.11c0-3.12-2.32-5.06-5.86-5.06H75.67V77.37H77.3V68.49a.55.55,0,0,1,.54-.55H78a.89.89,0,0,1,.75.38l6.65,9.05h1.91l-6.49-8.75a.43.43,0,0,1-.09-.26.42.42,0,0,1,.43-.42h.22c2.38,0,3.08-1.28,3.08-2.73,0-1.63-1.15-2.5-3-2.5H78.39v3.21a.55.55,0,1,1-1.09,0V62.17a.55.55,0,0,1,.54-.55h3.63c2.46,0,4,1.42,4,3.59a3.47,3.47,0,0,1-3.13,3.73l6.55,8.84A.43.43,0,0,1,89,78a.43.43,0,0,1-.43.43H85.26a.88.88,0,0,1-.73-.38l-6.14-8.36v8.19a.55.55,0,0,1-.55.55H75.13a.55.55,0,0,1-.55-.55V59.6a.54.54,0,0,1,.55-.54h6.15C85.74,59.06,88.23,61.77,88.23,65.21Z" style="fill:#ff2d20"/><path d="M101.86,59.59l6.65,18.27a.45.45,0,0,1-.42.6h-2.77a.8.8,0,0,1-.76-.53L103,73.63H93.72l-1.36,3.74H94l.7-1.92a.57.57,0,0,1,.51-.35.55.55,0,0,1,.52.73L95,77.93a.8.8,0,0,1-.76.53H91.44a.44.44,0,0,1-.41-.6l1.73-4.79a.81.81,0,0,1,.77-.53h9.67a.79.79,0,0,1,.76.53l1.56,4.3h1.65l-6.26-17.22H98.63L95.05,70h6.63l-1.91-5.27-1.26,3.43a.53.53,0,0,1-.5.36.54.54,0,0,1-.52-.72l1.9-5.22a.4.4,0,0,1,.75,0L103,70.47a.45.45,0,0,1-.42.59H94.13a.44.44,0,0,1-.41-.59l4-10.88a.8.8,0,0,1,.76-.53h2.67A.79.79,0,0,1,101.86,59.59Z" style="fill:#ff2d20"/><path d="M127.07,78.07a.39.39,0,0,1-.38.39h-3.58a1.18,1.18,0,0,1-.85-.4l-4.72-5.51a.66.66,0,0,1-.13-.36.55.55,0,0,1,.55-.54.53.53,0,0,1,.41.19l4.73,5.53h2.07l-7.43-8.64a.59.59,0,0,1-.14-.37.64.64,0,0,1,.14-.38l6.74-7.83h-2l-6.68,7.79v10a.55.55,0,0,1-.54.55h-2.72a.55.55,0,0,1-.54-.55V59.6a.54.54,0,0,1,.54-.54h2.72a.54.54,0,0,1,.54.54v4.16a.54.54,0,0,1-1.08,0V60.15h-1.64V77.37h1.64V67.94a1.07,1.07,0,0,1,.27-.71l6.65-7.77a1.1,1.1,0,0,1,.86-.4H126a.39.39,0,0,1,.39.39.43.43,0,0,1-.09.26l-7.45,8.65L127,77.81A.38.38,0,0,1,127.07,78.07Z" style="fill:#ff2d20"/><path d="M142.21,74.81a.53.53,0,0,1,.54.54v2.56a.54.54,0,0,1-.54.55H131.3a.55.55,0,0,1-.55-.55V59.6a.55.55,0,0,1,.55-.54H142a.54.54,0,0,1,.54.54v2.57a.53.53,0,0,1-.54.54h-7.47v1.72A.54.54,0,0,1,134,65a.55.55,0,0,1-.54-.55V62.17a.55.55,0,0,1,.54-.55h7.48V60.15h-9.65V77.37h9.83V75.89H134a.54.54,0,0,1-.54-.54V67a.55.55,0,0,1,.54-.55h7.72a.55.55,0,0,1,.55.55v2.56a.55.55,0,0,1-.55.55h-5a.55.55,0,0,1-.54-.55.54.54,0,0,1,.54-.54h4.46V67.54h-6.63v7.27Z" style="fill:#ff2d20"/><path d="M157.14,59.51a.89.89,0,0,1,.76-.45H161a.41.41,0,0,1,.36.61l-5.93,10.85v7.39a.55.55,0,0,1-.55.55h-2.72a.55.55,0,0,1-.54-.55V72.72a.55.55,0,0,1,1.09,0v4.65h1.63V70.53a1.15,1.15,0,0,1,.14-.55l5.38-9.83H158l-5.64,10.33a.48.48,0,0,1-.39.22.46.46,0,0,1-.39-.22l-5.93-10.81a.41.41,0,0,1,.36-.61h3.08a.89.89,0,0,1,.77.45l2.59,4.73a.55.55,0,0,1-.49.8.52.52,0,0,1-.47-.28L149,60.15h-1.82L152,68.91Z" style="fill:#ff2d20"/><path d="M105.42,43h0l-1.32.57-1.15-.5C98.06,41,93.88,39,94.9,30.92s4-7.11,0-4.94-2.14,1.16-2.14,1.16v6.6a13.29,13.29,0,0,0,8,12.17l1.15.5,1.33-.57h0a13.4,13.4,0,0,0,6.51-5.76A13.68,13.68,0,0,1,105.42,43Z" style="fill:#f9a2a0"/><path d="M104.46,43.27h0l-1.32.56L102,43.34c-4.88-2.12-9.06-4.05-8-12.17s4-7.11,0-5-2.14,1.16-2.14,1.16V34a13.3,13.3,0,0,0,8,12.17l1.15.49,1.33-.56h0a13.35,13.35,0,0,0,6.51-5.76A13.55,13.55,0,0,1,104.46,43.27Z" style="fill:#f9a2a0"/><path d="M100,36.84a.39.39,0,0,1-.3-.14l-2.05-2.39a.39.39,0,0,1,.05-.55.38.38,0,0,1,.54,0L100,35.91l4.47-3.64a.39.39,0,0,1,.55.06.38.38,0,0,1-.06.54l-4.77,3.88A.36.36,0,0,1,100,36.84Z" style="fill:#ff2d20"/><path d="M99.56,47l1.32.58a.53.53,0,0,0,.39,0l1.49-.64a14.09,14.09,0,0,0,8.62-13V27.24a.49.49,0,0,0-.26-.43l-9.78-5.21a.49.49,0,0,0-.47,0l-9.51,5.22a.47.47,0,0,0-.25.42v6.82A14.09,14.09,0,0,0,99.56,47ZM92.08,27.53l9-5,9.3,5v6.38a13.1,13.1,0,0,1-8,12.08h0l-1.29.56L100,46.07a13.13,13.13,0,0,1-7.87-12Z" style="fill:#ff2d20"/><path d="M100.15,42.61,101,43a.36.36,0,0,0,.25,0l1-.42a9.13,9.13,0,0,0,5.6-8.41V29.83a.32.32,0,0,0-.17-.28l-6.35-3.38a.32.32,0,0,0-.3,0l-6.17,3.38a.32.32,0,0,0-.16.28v4.41A9.13,9.13,0,0,0,100.15,42.61ZM95.3,30l5.86-3.21,6,3.22v4.14A8.51,8.51,0,0,1,102,42h0l-.84.36L100.4,42a8.53,8.53,0,0,1-5.1-7.8Z" style="fill:#ff2d20;stroke:#ff2d20;stroke-miterlimit:10;stroke-width:0.41769081789323054px"/></svg>